# xmcd
#
# Track frame offsets: 
#        150
#        19135
#        38315
#        59212
#        77610
#        97985
#        120800
#        152260
#        170227
#        190837
#        215892
#        244395
#        269477
#        289967
#
# Disc length: 3906 seconds
#
# Revision: 12
# Processed by: cddbd v1.5.2PL0 Copyright (c) Steve Scherf et al.
# Submitted via: ExactAudioCopy v0.99pb5
#
DISCID=c30f400e
DTITLE=Tony Joe White - One Hot July
DYEAR=1998
DGENRE=Southern Rock
TTITLE0=Crack The Window Baby
TTITLE1=Gumbo John
TTITLE2=Across From Midnight
TTITLE3=Goin' Down Rockin'
TTITLE4=Cold Fingers
TTITLE5=I Want My Fleetwood Back
TTITLE6=I Believe I've Lost My Way
TTITLE7=Don't Over Do It
TTITLE8=The Delta Singer
TTITLE9=Ol' Black Crow
TTITLE10=One Hot July
TTITLE11=Conjure Woman
TTITLE12=Selena
TTITLE13=One Hot July (String Ensemble)
EXTD=© 1998, Mercury Records.\nProduced by Roger Davis and Tony Joe Wh
EXTD=ite
EXTT0=
EXTT1=
EXTT2=
EXTT3=
EXTT4=
EXTT5=
EXTT6=
EXTT7=
EXTT8=
EXTT9=
EXTT10=
EXTT11=
EXTT12=
EXTT13=
PLAYORDER=
